<?xml version="1.0" encoding="UTF-8" standalone="no"?>
<svg
   xmlns:dc="http://purl.org/dc/elements/1.1/"
   xmlns:cc="http://creativecommons.org/ns#"
   xmlns:rdf="http://www.w3.org/1999/02/22-rdf-syntax-ns#"
   xmlns:svg="http://www.w3.org/2000/svg"
   xmlns="http://www.w3.org/2000/svg"
   xmlns:sodipodi="http://sodipodi.sourceforge.net/DTD/sodipodi-0.dtd"
   xmlns:inkscape="http://www.inkscape.org/namespaces/inkscape"
   inkscape:version="1.0 (4035a4f, 2020-05-01)"
   sodipodi:docname="bg_atlasapi_schema.svg"
   viewBox="0 0 1647.0176 758.78356"
   height="758.78357"
   width="1647.0176"
   xml:space="preserve"
   id="svg5054"
   version="1.1"><metadata
     id="metadata5060"><rdf:RDF><cc:Work
         rdf:about=""><dc:format>image/svg+xml</dc:format><dc:type
           rdf:resource="http://purl.org/dc/dcmitype/StillImage" /><dc:title></dc:title></cc:Work></rdf:RDF></metadata><defs
     id="defs5058"><clipPath
       id="clipPath5072"
       clipPathUnits="userSpaceOnUse"><path
         id="path5070"
         d="M 0,1.206994e-5 H 959.76 V 540.00001 H 0 Z" /></clipPath><clipPath
       id="clipPath5082"
       clipPathUnits="userSpaceOnUse"><path
         id="path5080"
         d="M 0,0 H 960 V 540 H 0 Z" /></clipPath></defs><sodipodi:namedview
     inkscape:current-layer="g5062"
     inkscape:window-maximized="0"
     inkscape:window-y="0"
     inkscape:window-x="0"
     inkscape:cy="454.71555"
     inkscape:cx="786.22021"
     inkscape:zoom="0.28123089"
     fit-margin-bottom="0"
     fit-margin-right="0"
     fit-margin-left="0"
     fit-margin-top="0"
     showgrid="false"
     id="namedview5056"
     inkscape:window-height="900"
     inkscape:window-width="1440"
     inkscape:pageshadow="2"
     inkscape:pageopacity="0"
     guidetolerance="10"
     gridtolerance="10"
     objecttolerance="10"
     borderopacity="1"
     bordercolor="#666666"
     pagecolor="#ffffff" /><g
     transform="matrix(1.3333333,0,0,-1.3333333,-175.96147,656.04661)"
     inkscape:label="bg_atlasapi_schema"
     inkscape:groupmode="layer"
     id="g5062"><g
       id="g5064" /><g
       style="stroke-width:0.677098"
       transform="matrix(1.1629067e-4,0,0,-1.1629075e-4,241.72359,460.71795)"
       id="g5086"><path
         id="path5088"
         style="fill:none;stroke:#767171;stroke-width:25797.4;stroke-linecap:butt;stroke-linejoin:miter;stroke-miterlimit:8;stroke-dasharray:none;stroke-opacity:1"
         d="M 0,119454 C 0,53481.36 53481.27,0 119453.8,0 H 1822697 c 65973,0 119454,53481.36 119454,119454 v 477801 c 0,65972.6 -53481,119454 -119454,119454 H 119453.8 C 53481.27,716709 0,663227.6 0,597255 Z" /></g><g
       style="stroke-width:0.677098"
       transform="matrix(1.1629067e-4,0,0,-1.1629075e-4,241.72359,339.89248)"
       id="g5090"><path
         id="path5092"
         style="fill:none;stroke:#767171;stroke-width:25797.4;stroke-linecap:butt;stroke-linejoin:miter;stroke-miterlimit:8;stroke-dasharray:none;stroke-opacity:1"
         d="M 0,119454 C 0,53481.36 53481.27,0 119453.8,0 H 1822697 c 65973,0 119454,53481.36 119454,119454 v 477801 c 0,65972.6 -53481,119454 -119454,119454 H 119453.8 C 53481.27,716709 0,663227.6 0,597255 Z" /></g><g
       style="stroke-width:0.677098"
       transform="matrix(1.1629067e-4,0,0,-1.1629075e-4,241.72359,218.46873)"
       id="g5094"><path
         id="path5096"
         style="fill:none;stroke:#767171;stroke-width:25797.4;stroke-linecap:butt;stroke-linejoin:miter;stroke-miterlimit:8;stroke-dasharray:none;stroke-opacity:1"
         d="M 0,119454 C 0,53481.36 53481.27,0 119453.8,0 H 1822697 c 65973,0 119454,53481.36 119454,119454 v 477801 c 0,65972.6 -53481,119454 -119454,119454 H 119453.8 C 53481.27,716709 0,663227.6 0,597255 Z" /></g><g
       style="stroke-width:0.677098"
       transform="matrix(0.35445397,0,0,0.35445422,279.09648,-373.99838)"
       id="g5098"><text
         id="text5102"
         style="font-variant:normal;font-weight:normal;font-size:50px;font-family:Palatino;-inkscape-font-specification:PalatinoLinotype-Roman;writing-mode:lr-tb;fill:#767171;fill-opacity:1;fill-rule:nonzero;stroke:none;stroke-width:0.677098"
         transform="matrix(1,0,0,-1,0,2250)"><tspan
           style="stroke-width:0.677098"
           id="tspan5100"
           sodipodi:role="line"
           y="0"
           x="0 47.395 74.489998 104.685 126.03">Mouse</tspan></text></g><g
       style="stroke-width:0.677098"
       transform="matrix(0.35445397,0,0,0.35445422,336.0528,-373.99838)"
       id="g5104"><text
         id="text5108"
         style="font-variant:normal;font-weight:normal;font-size:50px;font-family:Palatino;-inkscape-font-specification:PalatinoLinotype-Roman;writing-mode:lr-tb;fill:#767171;fill-opacity:1;fill-rule:nonzero;stroke:none;stroke-width:0.677098"
         transform="matrix(1,0,0,-1,0,2250)"><tspan
           style="stroke-width:0.677098"
           id="tspan5106"
           sodipodi:role="line"
           y="0"
           x="0 39.064999 53.630001 68.195 92.160004">Allen</tspan></text></g><g
       style="stroke-width:0.677098"
       transform="matrix(0.35445397,0,0,0.35445422,383.49793,-373.99838)"
       id="g5110"><text
         id="text5114"
         style="font-variant:normal;font-weight:normal;font-size:50px;font-family:Palatino;-inkscape-font-specification:PalatinoLinotype-Roman;writing-mode:lr-tb;fill:#767171;fill-opacity:1;fill-rule:nonzero;stroke:none;stroke-width:0.677098"
         transform="matrix(1,0,0,-1,0,2250)"><tspan
           style="stroke-width:0.677098"
           id="tspan5112"
           sodipodi:role="line"
           y="0"
           x="0 30.73 50.52 75.519997 90.105003">Brain</tspan></text></g><g
       style="stroke-width:0.677098"
       transform="matrix(0.35445397,0,0,0.35445422,291.97497,-395.97454)"
       id="g5116"><text
         id="text5120"
         style="font-variant:normal;font-weight:normal;font-size:50px;font-family:Palatino;-inkscape-font-specification:PalatinoLinotype-Roman;writing-mode:lr-tb;fill:#767171;fill-opacity:1;fill-rule:nonzero;stroke:none;stroke-width:0.677098"
         transform="matrix(1,0,0,-1,0,2250)"><tspan
           style="stroke-width:0.677098"
           id="tspan5118"
           sodipodi:role="line"
           y="0"
           x="0 33.334999 57.294998 73.959999 97.919998 117.71 141.67 170.83501 193.23 217.19 229.69 246.355 281.76999 309.375 336.98001">Reference (CFF)</tspan></text></g><g
       style="stroke-width:0.677098"
       transform="matrix(0.35445397,0,0,0.35445422,308.58985,-494.15837)"
       id="g5122"><text
         id="text5126"
         style="font-variant:normal;font-weight:normal;font-size:50px;font-family:Palatino;-inkscape-font-specification:PalatinoLinotype-Roman;writing-mode:lr-tb;fill:#767171;fill-opacity:1;fill-rule:nonzero;stroke:none;stroke-width:0.677098"
         transform="matrix(1,0,0,-1,0,2250)"><tspan
           style="stroke-width:0.677098"
           id="tspan5124"
           sodipodi:role="line"
           y="0"
           x="0 47.395 72.394997 98.434998 110.935 141.145 155.73 180.73 209.895 232.28999">Max Planck</tspan></text></g><g
       style="stroke-width:0.677098"
       transform="matrix(0.35445397,0,0,0.35445422,293.82094,-516.13453)"
       id="g5128"><text
         id="text5132"
         style="font-variant:normal;font-weight:normal;font-size:50px;font-family:Palatino;-inkscape-font-specification:PalatinoLinotype-Roman;writing-mode:lr-tb;fill:#767171;fill-opacity:1;fill-rule:nonzero;stroke:none;stroke-width:0.677098"
         transform="matrix(1,0,0,-1,0,2250)"><tspan
           style="stroke-width:0.677098"
           id="tspan5130"
           sodipodi:role="line"
           y="0"
           x="0 33.334999 57.294998 84.900002 104.69 129.69 146.355 160.94 182.295 211.46001 223.96001 254.69 274.48001 299.48001 314.065">Zebrafish Brain</tspan></text></g><g
       style="stroke-width:0.677098"
       transform="matrix(0.35445397,0,0,0.35445422,277.29821,-615.38171)"
       id="g5134"><text
         id="text5138"
         style="font-variant:normal;font-weight:normal;font-size:50px;font-family:Palatino;-inkscape-font-specification:PalatinoLinotype-Roman;writing-mode:lr-tb;fill:#767171;fill-opacity:1;fill-rule:nonzero;stroke:none;stroke-width:0.677098"
         transform="matrix(1,0,0,-1,0,2250)"><tspan
           style="stroke-width:0.677098"
           id="tspan5136"
           sodipodi:role="line"
           y="0"
           x="0 36.459999 51.044998 95.315002 107.815 138.545 163.545 191.14999 203.64999 234.38 263.54501 292.70999 317.70999 346.875 369.26999 393.23001 423.95999">Kim Lab Enhanced </tspan></text></g><g
       style="stroke-width:0.677098"
       transform="matrix(0.35445397,0,0,0.35445422,305.58807,-637.71232)"
       id="g5140"><text
         id="text5144"
         style="font-variant:normal;font-weight:normal;font-size:50px;font-family:Palatino;-inkscape-font-specification:PalatinoLinotype-Roman;writing-mode:lr-tb;fill:#767171;fill-opacity:1;fill-rule:nonzero;stroke:none;stroke-width:0.677098"
         transform="matrix(1,0,0,-1,0,2250)"><tspan
           style="stroke-width:0.677098"
           id="tspan5142"
           sodipodi:role="line"
           y="0"
           x="0 47.395 74.489998 104.685 126.03 149.97501">Mouse </tspan></text></g><g
       style="stroke-width:0.677098"
       transform="matrix(0.35445397,0,0,0.35445422,362.54439,-637.71232)"
       id="g5146"><text
         id="text5150"
         style="font-variant:normal;font-weight:normal;font-size:50px;font-family:Palatino;-inkscape-font-specification:PalatinoLinotype-Roman;writing-mode:lr-tb;fill:#767171;fill-opacity:1;fill-rule:nonzero;stroke:none;stroke-width:0.677098"
         transform="matrix(1,0,0,-1,0,2250)"><tspan
           style="stroke-width:0.677098"
           id="tspan5148"
           y="0"
           x="0">A</tspan></text></g><g
       style="stroke-width:0.677098"
       transform="matrix(0.35445397,0,0,0.35445422,376.39025,-637.71232)"
       id="g5152"><text
         id="text5156"
         style="font-variant:normal;font-weight:normal;font-size:50px;font-family:Palatino;-inkscape-font-specification:PalatinoLinotype-Roman;writing-mode:lr-tb;fill:#767171;fill-opacity:1;fill-rule:nonzero;stroke:none;stroke-width:0.677098"
         transform="matrix(1,0,0,-1,0,2250)"><tspan
           style="stroke-width:0.677098"
           id="tspan5154"
           sodipodi:role="line"
           y="0"
           x="0 16.145 30.73 55.73">tlas</tspan></text></g><g
       style="stroke-width:0.677098"
       transform="matrix(1.1629067e-4,0,0,-1.1629075e-4,241.72359,97.044822)"
       id="g5158"><path
         id="path5160"
         style="fill:none;stroke:#767171;stroke-width:25797.4;stroke-linecap:butt;stroke-linejoin:miter;stroke-miterlimit:8;stroke-dasharray:none;stroke-opacity:1"
         d="M 0,119454 C 0,53481.36 53481.27,0 119453.8,0 H 1822697 c 65973,0 119454,53481.36 119454,119454 v 477801 c 0,65972.6 -53481,119454 -119454,119454 H 119453.8 C 53481.27,716709 0,663227.6 0,597255 Z" /></g><g
       style="stroke-width:0.677098"
       transform="matrix(0.35445397,0,0,0.35445422,345.78905,-747.59313)"
       id="g5162"><text
         id="text5166"
         style="font-variant:normal;font-weight:normal;font-size:50px;font-family:Palatino;-inkscape-font-specification:PalatinoLinotype-Roman;writing-mode:lr-tb;fill:#767171;fill-opacity:1;fill-rule:nonzero;stroke:none;stroke-width:0.677098"
         transform="matrix(1,0,0,-1,0,2250)"><tspan
           style="stroke-width:0.677098"
           id="tspan5164"
           y="0"
           x="0">…</tspan></text></g><path
       id="path5168"
       style="fill:#afabab;fill-opacity:1;fill-rule:nonzero;stroke:none;stroke-width:1"
       d="m 482.44567,421.07637 h 36.67876 V 256.54789 l -2.03073,2.03072 h 276.83711 v -4.06146 H 515.06298 v 164.5285 l 2.03072,-2.03074 h -34.64803 z m 309.45441,-154.37485 20.30726,-10.15363 -20.30726,-10.15364 z" /><path
       id="path5170"
       style="fill:#afabab;fill-opacity:1;fill-rule:nonzero;stroke:none;stroke-width:1"
       d="m 482.24659,300.25105 h 20.09962 v -54.22927 l -2.03074,2.03072 h 293.61548 v -4.06145 h -295.6462 v 54.22928 l 2.03072,-2.03073 h -18.06888 z m 309.65349,-44.07564 20.30726,-10.15363 -20.30726,-10.15364 z" /><path
       id="path5172"
       style="fill:#afabab;fill-opacity:1;fill-rule:nonzero;stroke:none;stroke-width:1"
       d="m 482.24659,59.036549 h 36.67875 V 223.56504 l -2.03072,-2.03074 h 276.83726 v 4.06146 H 514.86389 V 61.067277 l 2.03073,2.030727 H 482.24659 Z M 791.701,213.4114 812.00825,223.56504 791.701,233.71867 Z" /><path
       id="path5174"
       style="fill:#afabab;fill-opacity:1;fill-rule:nonzero;stroke:none;stroke-width:1"
       d="m 482.8214,178.21469 h 18.97421 v 56.67057 l -2.03071,-2.03071 h 294.16089 v 4.06144 H 497.73417 v -56.67058 l 2.03073,2.03073 h -16.9435 z m 309.07322,46.51694 20.30726,10.15363 -20.30726,10.15364 z" /><path
       id="path5176"
       style="fill:#d0cece;fill-opacity:1;fill-rule:nonzero;stroke:none;stroke-width:1"
       d="m 547.49241,268.32624 c 0,7.67203 6.21933,13.89137 13.89135,13.89137 h 198.07123 c 7.67201,0 13.89135,-6.21934 13.89135,-13.89137 v -55.56379 c 0,-7.67201 -6.21934,-13.89151 -13.89135,-13.89151 H 561.38376 c -7.67202,0 -13.89135,6.2195 -13.89135,13.89151 z" /><g
       style="stroke-width:0.677098"
       transform="matrix(0.35445397,0,0,0.35445422,606.05575,-550.87104)"
       id="g5178"><text
         id="text5182"
         style="font-variant:normal;font-weight:normal;font-size:58.3333px;font-family:Palatino;-inkscape-font-specification:PalatinoLinotype-Roman;writing-mode:lr-tb;fill:#3b3838;fill-opacity:1;fill-rule:nonzero;stroke:none;stroke-width:0.677098"
         transform="matrix(1,0,0,-1,0,2250)"><tspan
           style="stroke-width:0.677098"
           id="tspan5180"
           sodipodi:role="line"
           y="0"
           x="0 35.414165 58.333328 87.499992 104.685 138.54166 182.81082 199.99582 231.76416 264.0575">BrainGlobe</tspan></text></g><g
       style="stroke-width:0.677098"
       transform="matrix(0.35445397,0,0,0.35445422,562.57606,-576.03729)"
       id="g5184"><text
         id="text5188"
         style="font-variant:normal;font-weight:normal;font-size:58.3333px;font-family:Palatino;-inkscape-font-specification:PalatinoLinotype-Roman;writing-mode:lr-tb;fill:#3b3838;fill-opacity:1;fill-rule:nonzero;stroke:none;stroke-width:0.677098"
         transform="matrix(1,0,0,-1,0,2250)"><tspan
           style="stroke-width:0.677098"
           id="tspan5186"
           sodipodi:role="line"
           y="0"
           x="0 24.476665 43.749996 72.916664 106.77333 142.18748 171.35416 194.27332 229.68748 244.27081 273.43747 292.71082 309.89581 339.06247 363.53915 378.12247 397.39581 429.16415 452.08331 503.64413 532.81079">standard atlas format</tspan></text></g><path
       id="path5190"
       style="fill:#ebeced;fill-opacity:1;fill-rule:evenodd;stroke:none;stroke-width:1"
       d="m 826.00062,226.03602 h 224.30288 v 31.01474 H 826.00062 Z" /><path
       id="path5192"
       style="fill:#eceee6;fill-opacity:1;fill-rule:evenodd;stroke:none;stroke-width:1"
       d="m 1050.3035,226.03602 h 5.9076 v 31.01474 h -5.9076 z" /><path
       id="path5194"
       style="fill:#eceee6;fill-opacity:1;fill-rule:evenodd;stroke:none;stroke-width:1"
       d="m 1056.211,226.03602 h 39.1375 v 31.01474 h -39.1375 z" /><path
       id="path5196"
       style="fill:#eceee6;fill-opacity:1;fill-rule:evenodd;stroke:none;stroke-width:1"
       d="m 1095.3487,226.03602 h 9.9691 v 31.01474 h -9.9691 z" /><g
       style="stroke-width:0.677098"
       transform="matrix(0.35445397,0,0,0.35445422,826.00063,-565.40366)"
       id="g5198"><text
         id="text5202"
         style="font-variant:normal;font-weight:300;font-size:66.6667px;font-family:'Input Mono';-inkscape-font-specification:InputMono-Light;writing-mode:lr-tb;fill:#3b3838;fill-opacity:1;fill-rule:nonzero;stroke:none;stroke-width:0.677098"
         transform="matrix(1,0,0,-1,0,2250)"><tspan
           style="stroke-width:0.677098"
           id="tspan5200"
           sodipodi:role="line"
           y="0"
           x="0 42.186661 84.373322 126.55999 168.74664 210.93332 253.11998 295.30664 337.49329 379.67996 421.86664 464.05328 506.23996 548.42664 590.61328">BrainGlobeAtlas</tspan></text></g><g
       style="stroke-width:0.677098"
       transform="matrix(0.35445397,0,0,0.35445422,1056.211,-565.40366)"
       id="g5204"><text
         id="text5208"
         style="font-variant:normal;font-weight:normal;font-size:66.6667px;font-family:Palatino;-inkscape-font-specification:PalatinoLinotype-Roman;writing-mode:lr-tb;fill:#3b3838;fill-opacity:1;fill-rule:nonzero;stroke:none;stroke-width:0.677098"
         transform="matrix(1,0,0,-1,0,2250)"><tspan
           style="stroke-width:0.677098"
           id="tspan5206"
           sodipodi:role="line"
           y="0"
           x="0 29.686665 48.959995 82.293327">clas</tspan></text></g><g
       style="stroke-width:0.677098"
       transform="matrix(0.35445397,0,0,0.35445422,1095.3487,-565.40366)"
       id="g5210"><text
         id="text5214"
         style="font-variant:normal;font-weight:normal;font-size:66.6667px;font-family:Palatino;-inkscape-font-specification:PalatinoLinotype-Roman;writing-mode:lr-tb;fill:#3b3838;fill-opacity:1;fill-rule:nonzero;stroke:none;stroke-width:0.677098"
         transform="matrix(1,0,0,-1,0,2250)"><tspan
           style="stroke-width:0.677098"
           id="tspan5212"
           y="0"
           x="0">s</tspan></text></g><g
       style="stroke-width:0.677098"
       transform="matrix(1.1629067e-4,0,0,-1.1629075e-4,782.76892,476.03377)"
       id="g5216"><path
         id="path5218"
         style="fill:none;stroke:#d0cece;stroke-width:17198.3;stroke-linecap:butt;stroke-linejoin:miter;stroke-miterlimit:8;stroke-dasharray:none;stroke-opacity:1"
         d="M 0,0 1,1833483" /></g><g
       style="stroke-width:0.677098"
       transform="matrix(1.1629067e-4,0,0,-1.1629075e-4,782.76892,216.16995)"
       id="g5220"><path
         id="path5222"
         style="fill:none;stroke:#d0cece;stroke-width:17198.3;stroke-linecap:butt;stroke-linejoin:miter;stroke-miterlimit:8;stroke-dasharray:none;stroke-opacity:1"
         d="M 0,0 1,1833483" /></g><g
       style="stroke-width:0.677098"
       transform="matrix(0.35445397,0,0,0.35445422,652.97925,-366.20038)"
       id="g5224"><text
         id="text5228"
         style="font-variant:normal;font-weight:normal;font-size:58.3333px;font-family:Palatino;-inkscape-font-specification:PalatinoLinotype-Roman;writing-mode:lr-tb;fill:#767171;fill-opacity:1;fill-rule:nonzero;stroke:none;stroke-width:0.677098"
         transform="matrix(1,0,0,-1,0,2250)"><tspan
           style="stroke-width:0.677098"
           id="tspan5226"
           sodipodi:role="line"
           y="0"
           x="0 35.414165 58.333328 87.499992 104.685 138.54166 182.81082 199.99582 231.76416 264.0575">BrainGlobe</tspan></text></g><g
       style="stroke-width:0.677098"
       transform="matrix(0.35445397,0,0,0.35445422,656.28748,-395.62009)"
       id="g5230"><text
         id="text5234"
         style="font-variant:normal;font-weight:normal;font-size:58.3333px;font-family:Palatino;-inkscape-font-specification:PalatinoLinotype-Roman;writing-mode:lr-tb;fill:#767171;fill-opacity:1;fill-rule:nonzero;stroke:none;stroke-width:0.677098"
         transform="matrix(1,0,0,-1,0,2250)"><tspan
           style="stroke-width:0.677098"
           id="tspan5232"
           sodipodi:role="line"
           y="0"
           x="0 35.414165 63.536663 95.33416 123.45666 140.67082 172.46832 207.35748 235.47998">developer</tspan></text></g><g
       style="stroke-width:0.677098"
       transform="matrix(0.35445397,0,0,0.35445422,747.86952,-395.62009)"
       id="g5236"><text
         id="text5240"
         style="font-variant:normal;font-weight:normal;font-size:58.3333px;font-family:Palatino;-inkscape-font-specification:PalatinoLinotype-Roman;writing-mode:lr-tb;fill:#767171;fill-opacity:1;fill-rule:nonzero;stroke:none;stroke-width:0.677098"
         transform="matrix(1,0,0,-1,0,2250)"><tspan
           style="stroke-width:0.677098"
           id="tspan5238"
           y="0"
           x="0">s</tspan></text></g><g
       style="stroke-width:0.677098"
       transform="matrix(0.35445397,0,0,0.35445422,817.37677,-366.20038)"
       id="g5242"><text
         id="text5246"
         style="font-variant:normal;font-weight:normal;font-size:58.3333px;font-family:Palatino;-inkscape-font-specification:PalatinoLinotype-Roman;writing-mode:lr-tb;fill:#767171;fill-opacity:1;fill-rule:nonzero;stroke:none;stroke-width:0.677098"
         transform="matrix(1,0,0,-1,0,2250)"><tspan
           style="stroke-width:0.677098"
           id="tspan5244"
           sodipodi:role="line"
           y="0"
           x="0 35.414165 58.333328 87.499992 104.685 138.54166 182.81082 199.99582 231.76416 264.0575">BrainGlobe</tspan></text></g><g
       style="stroke-width:0.677098"
       transform="matrix(0.35445397,0,0,0.35445422,817.37677,-395.62009)"
       id="g5248"><text
         id="text5252"
         style="font-variant:normal;font-weight:normal;font-size:58.3333px;font-family:Palatino;-inkscape-font-specification:PalatinoLinotype-Roman;writing-mode:lr-tb;fill:#767171;fill-opacity:1;fill-rule:nonzero;stroke:none;stroke-width:0.677098"
         transform="matrix(1,0,0,-1,0,2250)"><tspan
           style="stroke-width:0.677098"
           id="tspan5250"
           sodipodi:role="line"
           y="0"
           x="0 45.313332 69.801666 97.906662 120.81999">Users</tspan></text></g><path
       id="path5254"
       style="fill:#ebeced;fill-opacity:1;fill-rule:evenodd;stroke:none;stroke-width:1"
       d="m 861.94093,154.2521 h 168.91947 v 20.6765 H 861.94093 Z" /><path
       id="path5256"
       style="fill:#ebeced;fill-opacity:1;fill-rule:evenodd;stroke:none;stroke-width:1"
       d="m 1030.8604,154.2521 h 236.4872 v 20.6765 h -236.4872 z" /><path
       id="path5258"
       style="fill:#ebeced;fill-opacity:1;fill-rule:evenodd;stroke:none;stroke-width:1"
       d="m 861.94093,127.66804 h 168.91947 v 20.6765 H 861.94093 Z" /><path
       id="path5260"
       style="fill:#ebeced;fill-opacity:1;fill-rule:evenodd;stroke:none;stroke-width:1"
       d="m 1030.8604,127.66804 h 202.7033 v 20.6765 h -202.7033 z" /><path
       id="path5262"
       style="fill:#ebeced;fill-opacity:1;fill-rule:evenodd;stroke:none;stroke-width:1"
       d="m 861.94093,101.08397 h 168.91947 v 20.6765 H 861.94093 Z" /><path
       id="path5264"
       style="fill:#ebeced;fill-opacity:1;fill-rule:evenodd;stroke:none;stroke-width:1"
       d="m 1030.8604,101.08397 h 135.1355 v 20.6765 h -135.1355 z" /><path
       id="path5266"
       style="fill:#ebeced;fill-opacity:1;fill-rule:evenodd;stroke:none;stroke-width:1"
       d="m 1165.996,101.08397 h 22.5226 v 20.6765 h -22.5226 z" /><path
       id="path5268"
       style="fill:#ebeced;fill-opacity:1;fill-rule:evenodd;stroke:none;stroke-width:1"
       d="m 1188.5186,101.08397 h 45.0451 v 20.6765 h -45.0451 z" /><path
       id="path5270"
       style="fill:#ebeced;fill-opacity:1;fill-rule:evenodd;stroke:none;stroke-width:1"
       d="M 861.94093,74.49991 H 1030.8604 V 95.176402 H 861.94093 Z" /><path
       id="path5272"
       style="fill:#ebeced;fill-opacity:1;fill-rule:evenodd;stroke:none;stroke-width:1"
       d="m 1030.8604,74.49991 h 33.7839 v 20.676492 h -33.7839 z" /><g
       style="stroke-width:0.677098"
       transform="matrix(0.35445397,0,0,0.35445422,861.94094,-638.77569)"
       id="g5274"><text
         id="text5278"
         style="font-variant:normal;font-weight:300;font-size:50px;font-family:'Input Mono';-inkscape-font-specification:InputMono-Light;writing-mode:lr-tb;fill:#afabab;fill-opacity:1;fill-rule:nonzero;stroke:none;stroke-width:0.677098"
         transform="matrix(1,0,0,-1,0,2250)"><tspan
           style="stroke-width:0.677098"
           id="tspan5276"
           sodipodi:role="line"
           y="0"
           x="0 31.77 63.540001 95.309998 127.08 158.85001 190.62 222.39 254.16 285.92999 317.70001 349.47 381.23999 413.01001 444.78">BrainGlobeAtlas</tspan></text></g><g
       style="stroke-width:0.677098"
       transform="matrix(0.35445397,0,0,0.35445422,1030.8604,-638.77569)"
       id="g5280"><text
         id="text5284"
         style="font-variant:normal;font-weight:300;font-size:50px;font-family:'Input Mono';-inkscape-font-specification:InputMono-Light;writing-mode:lr-tb;fill:#afabab;fill-opacity:1;fill-rule:nonzero;stroke:none;stroke-width:0.677098"
         transform="matrix(1,0,0,-1,0,2250)"><tspan
           style="stroke-width:0.677098"
           id="tspan5282"
           sodipodi:role="line"
           y="0"
           x="0 31.77 63.540001 95.309998 127.08 158.85001 190.62 222.39 254.16 285.92999 317.70001 349.47 381.23999 413.01001 444.78 476.54999 508.32001 540.09003 571.85999 603.63 635.40002">(“allen_mouse_100um”)</tspan></text></g><g
       style="stroke-width:0.677098"
       transform="matrix(0.35445397,0,0,0.35445422,861.94094,-665.35976)"
       id="g5286"><text
         id="text5290"
         style="font-variant:normal;font-weight:300;font-size:50px;font-family:'Input Mono';-inkscape-font-specification:InputMono-Light;writing-mode:lr-tb;fill:#afabab;fill-opacity:1;fill-rule:nonzero;stroke:none;stroke-width:0.677098"
         transform="matrix(1,0,0,-1,0,2250)"><tspan
           style="stroke-width:0.677098"
           id="tspan5288"
           sodipodi:role="line"
           y="0"
           x="0 31.77 63.540001 95.309998 127.08 158.85001 190.62 222.39 254.16 285.92999 317.70001 349.47 381.23999 413.01001 444.78">BrainGlobeAtlas</tspan></text></g><g
       style="stroke-width:0.677098"
       transform="matrix(0.35445397,0,0,0.35445422,1030.8604,-665.35976)"
       id="g5292"><text
         id="text5296"
         style="font-variant:normal;font-weight:300;font-size:50px;font-family:'Input Mono';-inkscape-font-specification:InputMono-Light;writing-mode:lr-tb;fill:#afabab;fill-opacity:1;fill-rule:nonzero;stroke:none;stroke-width:0.677098"
         transform="matrix(1,0,0,-1,0,2250)"><tspan
           style="stroke-width:0.677098"
           id="tspan5294"
           sodipodi:role="line"
           y="0"
           x="0 31.77 63.540001 95.309998 127.08 158.85001 190.62 222.39 254.16 285.92999 317.70001 349.47 381.23999 413.01001 444.78 476.54999 508.32001 540.09003">(“mpin_zfish_1um”)</tspan></text></g><g
       style="stroke-width:0.677098"
       transform="matrix(0.35445397,0,0,0.35445422,861.94094,-691.94382)"
       id="g5298"><text
         id="text5302"
         style="font-variant:normal;font-weight:300;font-size:50px;font-family:'Input Mono';-inkscape-font-specification:InputMono-Light;writing-mode:lr-tb;fill:#afabab;fill-opacity:1;fill-rule:nonzero;stroke:none;stroke-width:0.677098"
         transform="matrix(1,0,0,-1,0,2250)"><tspan
           style="stroke-width:0.677098"
           id="tspan5300"
           sodipodi:role="line"
           y="0"
           x="0 31.77 63.540001 95.309998 127.08 158.85001 190.62 222.39 254.16 285.92999 317.70001 349.47 381.23999 413.01001 444.78">BrainGlobeAtlas</tspan></text></g><g
       style="stroke-width:0.677098"
       transform="matrix(0.35445397,0,0,0.35445422,1030.8604,-691.94382)"
       id="g5304"><text
         id="text5308"
         style="font-variant:normal;font-weight:300;font-size:50px;font-family:'Input Mono';-inkscape-font-specification:InputMono-Light;writing-mode:lr-tb;fill:#afabab;fill-opacity:1;fill-rule:nonzero;stroke:none;stroke-width:0.677098"
         transform="matrix(1,0,0,-1,0,2250)"><tspan
           style="stroke-width:0.677098"
           id="tspan5306"
           sodipodi:role="line"
           y="0"
           x="0 31.77 63.540001 95.309998 127.08 158.85001 190.62 222.39 254.16 285.92999 317.70001 349.47">(“kim_mouse_</tspan></text></g><g
       style="stroke-width:0.677098"
       transform="matrix(0.35445397,0,0,0.35445422,1165.9959,-691.94382)"
       id="g5310"><text
         id="text5314"
         style="font-variant:normal;font-weight:300;font-size:50px;font-family:'Input Mono';-inkscape-font-specification:InputMono-Light;writing-mode:lr-tb;fill:#afabab;fill-opacity:1;fill-rule:nonzero;stroke:none;stroke-width:0.677098"
         transform="matrix(1,0,0,-1,0,2250)"><tspan
           style="stroke-width:0.677098"
           id="tspan5312"
           sodipodi:role="line"
           y="0"
           x="0 31.77">25</tspan></text></g><g
       style="stroke-width:0.677098"
       transform="matrix(0.35445397,0,0,0.35445422,1188.5185,-691.94382)"
       id="g5316"><text
         id="text5320"
         style="font-variant:normal;font-weight:300;font-size:50px;font-family:'Input Mono';-inkscape-font-specification:InputMono-Light;writing-mode:lr-tb;fill:#afabab;fill-opacity:1;fill-rule:nonzero;stroke:none;stroke-width:0.677098"
         transform="matrix(1,0,0,-1,0,2250)"><tspan
           style="stroke-width:0.677098"
           id="tspan5318"
           sodipodi:role="line"
           y="0"
           x="0 31.77 63.540001 95.309998">um”)</tspan></text></g><g
       style="stroke-width:0.677098"
       transform="matrix(0.35445397,0,0,0.35445422,861.94094,-718.52789)"
       id="g5322"><text
         id="text5326"
         style="font-variant:normal;font-weight:300;font-size:50px;font-family:'Input Mono';-inkscape-font-specification:InputMono-Light;writing-mode:lr-tb;fill:#afabab;fill-opacity:1;fill-rule:nonzero;stroke:none;stroke-width:0.677098"
         transform="matrix(1,0,0,-1,0,2250)"><tspan
           style="stroke-width:0.677098"
           id="tspan5324"
           sodipodi:role="line"
           y="0"
           x="0 31.77 63.540001 95.309998 127.08 158.85001 190.62 222.39 254.16 285.92999 317.70001 349.47 381.23999 413.01001 444.78">BrainGlobeAtlas</tspan></text></g><g
       style="stroke-width:0.677098"
       transform="matrix(0.35445397,0,0,0.35445422,1030.8604,-718.52789)"
       id="g5328"><text
         id="text5332"
         style="font-variant:normal;font-weight:300;font-size:50px;font-family:'Input Mono';-inkscape-font-specification:InputMono-Light;writing-mode:lr-tb;fill:#afabab;fill-opacity:1;fill-rule:nonzero;stroke:none;stroke-width:0.677098"
         transform="matrix(1,0,0,-1,0,2250)"><tspan
           style="stroke-width:0.677098"
           id="tspan5330"
           sodipodi:role="line"
           y="0"
           x="0 31.77 63.540001">(…)</tspan></text></g></g></svg>
