<?xml version="1.0" encoding="UTF-8" standalone="no"?>
<!DOCTYPE svg PUBLIC "-//W3C//DTD SVG 1.1//EN" "http://www.w3.org/Graphics/SVG/1.1/DTD/svg11.dtd">
<svg width="100%" height="100%" viewBox="0 0 2617 1555" version="1.1" xmlns="http://www.w3.org/2000/svg" xmlns:xlink="http://www.w3.org/1999/xlink" xml:space="preserve" xmlns:serif="http://www.serif.com/" style="fill-rule:evenodd;clip-rule:evenodd;">
    <g transform="matrix(1,0,0,1,-4100.27,2156.57)">
        <g transform="matrix(1,0,0,1,58.0418,173.808)">
            <g id="globe" transform="matrix(9.51509,3.3389,-3.3389,9.51509,4668.98,-3999.8)">
                <path id="path94" d="M15.593,194.32L127.664,266.909" style="fill:none;fill-rule:nonzero;stroke:rgb(179,179,179);stroke-width:3.51px;"/>
                <path id="path86" d="M75.963,283.716C51.149,284.624 28.631,269.279 20.401,245.851C12.171,222.424 20.144,196.367 40.075,181.556L43.145,183.235L43.649,186.665C26.521,199.879 19.978,223.044 27.497,243.85C35.015,264.656 54.849,278.275 76.461,277.47C98.072,276.665 116.445,261.623 121.816,240.337L125.395,239.472L128.609,241.891C122.113,265.857 100.778,282.808 75.963,283.716Z" style="fill:rgb(51,51,51);fill-rule:nonzero;"/>
                <g id="rect931" transform="matrix(-0.943592,0.331112,0.331112,0.943592,0,0)">
                    <path d="M3.934,287.913C3.934,287.892 3.917,287.876 3.897,287.876L3.824,287.876C3.804,287.876 3.787,287.892 3.787,287.913L3.787,305.151C3.787,305.171 3.804,305.187 3.824,305.187L3.897,305.187C3.917,305.187 3.934,305.171 3.934,305.151L3.934,287.913Z" style="fill:rgb(153,153,153);stroke:rgb(51,51,51);stroke-width:7.06px;"/>
                </g>
                <path id="path933" d="M114.257,290.625L85.09,300.86L84.038,297.864L94.898,289.561L99.563,287.936L113.206,287.628L114.257,290.625Z" style="fill:rgb(26,26,26);fill-rule:nonzero;stroke:rgb(26,26,26);stroke-width:0.75px;"/>
            </g>
            <g id="brain" transform="matrix(9.51509,3.3389,-3.3389,9.51509,3950.09,-3430.63)">
                <path id="path896" d="M150.552,147.155C150.552,147.155 152.851,144.804 154.502,146.211C159.033,149.551 158.782,158.952 158.782,158.952C158.566,161.207 157.379,163.174 157.379,163.174C158.42,167.022 155.275,172.186 153.486,175.142C151.422,177.914 147.822,182.773 143.862,183.264C143.862,183.264 142.486,185.105 140.478,186.157C140.478,186.157 131.856,189.942 127.048,187.014C125.119,186.02 126.43,183.006 126.43,183.006L116.593,150.228L150.552,147.155Z" style="fill:rgb(255,196,144);fill-rule:nonzero;stroke:rgb(44,40,37);stroke-width:0.5px;stroke-linejoin:round;stroke-miterlimit:2;"/>
                <path id="path894" d="M143.641,152.566C143.641,152.566 146.255,156.344 144.851,158.777C142.719,161.181 140.249,163.764 137.563,164.438C138.22,167.204 136.449,171.583 135.05,173.343C133.325,175.561 128.834,174.572 128.834,174.572L118.823,151.907L143.641,152.566Z" style="fill:rgb(255,196,144);fill-rule:nonzero;stroke:rgb(42,42,42);stroke-width:0.5px;stroke-linejoin:round;stroke-miterlimit:2;"/>
                <path id="path888" d="M104.837,131.114C104.837,131.114 104.274,129.623 103.508,129.056C101.063,127.204 97.411,126.61 95.785,126.527C92.535,126.627 89.333,127.115 88.764,127.9C88.518,128.227 86.616,129.633 87.52,130.682C88.355,131.65 90.455,132.624 91.994,133.712C95.425,136.135 99.132,138.791 99.468,139.263C99.24,139.21 98.745,138.589 97.726,137.81C95.082,135.788 90.264,132.224 87.507,131.182C86.233,130.701 85.51,132.471 85.3,132.82C84.787,133.643 85.465,137.135 86.601,140.178C87.292,141.649 89.223,144.802 91.864,146.362C92.679,146.856 94.274,146.813 94.274,146.813L105.583,143.016L104.837,131.114Z" style="fill:rgb(255,221,176);fill-rule:nonzero;stroke:rgb(50,44,40);stroke-width:0.5px;stroke-linejoin:round;stroke-miterlimit:2;"/>
                <path id="path878" d="M127.713,157.881C128.905,158.83 135.386,156.615 137.872,155.566C140.086,154.468 150.227,149.821 150.736,146.516C150.736,146.516 151.298,143.388 149.67,140.923C149.67,140.923 146.488,136.231 140.773,133.47C129.515,128.465 125.924,127.439 119.649,127.574C119.649,127.574 112.997,128.042 105.855,130.685C103.445,131.597 98.36,138.428 99.854,139.65" style="fill:rgb(255,221,176);fill-rule:nonzero;stroke:rgb(38,38,38);stroke-width:0.41px;stroke-linejoin:round;stroke-miterlimit:2;"/>
                <path id="path6621-7" d="M127.827,157.821C129.158,158.564 129.469,165.409 129.436,168.104C129.255,170.566 128.779,181.698 125.907,183.418C125.907,183.418 123.22,185.119 120.318,184.546C120.318,184.546 114.766,183.377 110.047,179.136C101.151,170.62 98.843,167.687 96.597,161.835C96.597,161.835 94.517,155.508 94.268,147.906C94.203,145.333 95.166,143.82 96.088,142.189C96.088,142.189 98.253,138.758 100.097,139.546C103.38,141.599 126.62,156.86 127.827,157.821Z" style="fill:rgb(255,221,176);fill-rule:nonzero;stroke:rgb(23,23,23);stroke-width:0.41px;stroke-linejoin:round;stroke-miterlimit:2;"/>
            </g>
            <g id="Text" transform="matrix(9.51509,3.3389,-3.3389,9.51509,4857.5,-4007.8)">
                <g transform="matrix(0.943592,-0.331112,0.331112,0.943592,57.5952,194.532)">
                    <g id="text907">
                        <text x="0px" y="0px" style="font-family:'AmericanTypewriter', 'American Typewriter', serif;font-size:54px;fill:rgb(153,153,153);stroke:rgb(179,179,179);stroke-width:0.1px;stroke-linejoin:round;stroke-miterlimit:2;">Brain</text>
                    </g>
                </g>
                <g transform="matrix(0.943592,-0.331112,0.331112,0.943592,115.52,235.104)">
                    <g id="text907-8">
                        <text x="0px" y="0px" style="font-family:'GillSans', 'Gill Sans', sans-serif;font-size:60px;fill:rgb(51,51,51);stroke:rgb(179,179,179);stroke-width:0.1px;stroke-linejoin:round;stroke-miterlimit:2;">Globe</text>
                    </g>
                </g>
            </g>
        </g>
    </g>
</svg>
