<?xml version="1.0" encoding="UTF-8" standalone="no"?>
<!DOCTYPE svg PUBLIC "-//W3C//DTD SVG 1.1//EN" "http://www.w3.org/Graphics/SVG/1.1/DTD/svg11.dtd">
<svg width="100%" height="100%" viewBox="0 0 1544 457" version="1.1" xmlns="http://www.w3.org/2000/svg" xmlns:xlink="http://www.w3.org/1999/xlink" xml:space="preserve" xmlns:serif="http://www.serif.com/" style="fill-rule:evenodd;clip-rule:evenodd;stroke-linejoin:round;stroke-miterlimit:2;">
    <g transform="matrix(1,0,0,1,-7818.06,-12913.2)">
        <g transform="matrix(0.760045,0,0,0.77293,2460.51,3080.39)">
            <g transform="matrix(0.854918,0,0,0.891993,15823.1,13994.8)">
                <g transform="matrix(4.16667,0,0,4.16667,-10438.1,-2410.27)">
                    <clipPath id="_clip1">
                        <rect x="42.005" y="235.864" width="570.058" height="158.894" clip-rule="nonzero"/>
                    </clipPath>
                    <g clip-path="url(#_clip1)">
                        <g transform="matrix(1,0,0,1,42.0059,363.572)">
                            <path d="M0,11.229L6.266,10.613C6.643,12.739 7.408,14.299 8.562,15.295C9.714,16.291 11.271,16.79 13.229,16.79C15.302,16.79 16.866,16.346 17.917,15.46C18.969,14.574 19.495,13.537 19.495,12.349C19.495,11.589 19.273,10.94 18.831,10.406C18.388,9.87 17.616,9.405 16.514,9.008C15.76,8.747 14.041,8.278 11.357,7.602C7.905,6.739 5.482,5.677 4.09,4.417C2.131,2.643 1.153,0.483 1.153,-2.068C1.153,-3.707 1.613,-5.242 2.535,-6.671C3.456,-8.101 4.782,-9.188 6.516,-9.936C8.249,-10.683 10.342,-11.056 12.793,-11.056C16.797,-11.056 19.811,-10.17 21.833,-8.397C23.858,-6.624 24.92,-4.257 25.021,-1.298L18.581,-1.014C18.305,-2.668 17.714,-3.858 16.808,-4.584C15.901,-5.31 14.542,-5.67 12.728,-5.67C10.857,-5.67 9.392,-5.283 8.333,-4.507C7.65,-4.009 7.31,-3.342 7.31,-2.506C7.31,-1.744 7.629,-1.092 8.267,-0.551C9.08,0.138 11.053,0.855 14.186,1.604C17.319,2.35 19.636,3.123 21.137,3.921C22.639,4.721 23.814,5.812 24.663,7.196C25.511,8.58 25.935,10.291 25.935,12.329C25.935,14.175 25.427,15.904 24.413,17.516C23.397,19.127 21.961,20.324 20.104,21.109C18.248,21.893 15.934,22.285 13.163,22.285C9.13,22.285 6.033,21.343 3.873,19.461C1.711,17.577 0.42,14.833 0,11.229" style="fill:rgb(15,80,163);fill-rule:nonzero;"/>
                        </g>
                        <g transform="matrix(1,0,0,1,76.5483,378.167)">
                            <path d="M0,-9.103L-5.548,-10.113C-4.925,-12.369 -3.851,-14.039 -2.328,-15.124C-0.805,-16.208 1.458,-16.749 4.46,-16.749C7.187,-16.749 9.219,-16.424 10.553,-15.773C11.887,-15.119 12.826,-14.292 13.371,-13.289C13.914,-12.286 14.187,-10.441 14.187,-7.762L14.121,-0.553C14.121,1.499 14.219,3.011 14.415,3.987C14.61,4.961 14.977,6.005 15.513,7.118L9.465,7.118C9.305,6.708 9.109,6.099 8.877,5.294C8.775,4.927 8.704,4.686 8.66,4.569C7.616,5.594 6.498,6.363 5.309,6.877C4.12,7.389 2.851,7.646 1.501,7.646C-0.878,7.646 -2.752,6.994 -4.123,5.689C-5.494,4.386 -6.18,2.738 -6.18,0.744C-6.18,-0.573 -5.867,-1.749 -5.244,-2.782C-4.62,-3.817 -3.746,-4.608 -2.622,-5.156C-1.498,-5.706 0.123,-6.186 2.241,-6.596C5.099,-7.137 7.078,-7.644 8.182,-8.113L8.182,-8.728C8.182,-9.914 7.891,-10.762 7.311,-11.267C6.73,-11.771 5.636,-12.024 4.025,-12.024C2.938,-12.024 2.088,-11.808 1.48,-11.377C0.87,-10.944 0.376,-10.185 0,-9.103M8.182,-4.089C7.398,-3.828 6.157,-3.513 4.46,-3.145C2.764,-2.78 1.654,-2.421 1.132,-2.07C0.334,-1.497 -0.065,-0.771 -0.065,0.108C-0.065,0.971 0.254,1.719 0.892,2.348C1.531,2.98 2.342,3.295 3.33,3.295C4.431,3.295 5.483,2.928 6.484,2.195C7.224,1.638 7.709,0.958 7.941,0.15C8.102,-0.377 8.182,-1.38 8.182,-2.859L8.182,-4.089Z" style="fill:rgb(15,80,163);fill-rule:nonzero;"/>
                        </g>
                        <g transform="matrix(1,0,0,1,0,-2096.3)">
                            <path d="M96.093,2449.37L102.207,2449.37L102.207,2455.08L96.093,2455.08L96.093,2449.37ZM96.093,2458.24L102.207,2458.24L102.207,2481.58L96.093,2481.58L96.093,2458.24Z" style="fill:rgb(15,80,163);fill-rule:nonzero;"/>
                        </g>
                        <g transform="matrix(1,0,0,1,128.822,361.418)">
                            <path d="M0,23.867L-6.113,23.867L-6.113,11.956C-6.113,9.436 -6.244,7.804 -6.505,7.065C-6.766,6.325 -7.191,5.75 -7.778,5.34C-8.365,4.93 -9.073,4.725 -9.899,4.725C-10.958,4.725 -11.909,5.018 -12.75,5.604C-13.591,6.19 -14.167,6.965 -14.479,7.932C-14.792,8.899 -14.947,10.687 -14.947,13.295L-14.947,23.867L-21.062,23.867L-21.062,0.528L-15.382,0.528L-15.382,3.954C-13.366,1.317 -10.828,0 -7.767,0C-6.418,0 -5.186,0.243 -4.069,0.735C-2.952,1.226 -2.106,1.853 -1.534,2.615C-0.96,3.377 -0.561,4.24 -0.337,5.207C-0.112,6.174 0,7.56 0,9.362L0,23.867Z" style="fill:rgb(15,80,163);fill-rule:nonzero;"/>
                        </g>
                        <g transform="matrix(1,0,0,1,131.756,368.605)">
                            <path d="M0,10.022L6.136,9.075C6.396,10.279 6.926,11.189 7.724,11.812C8.522,12.436 9.639,12.747 11.075,12.747C12.656,12.747 13.845,12.454 14.643,11.868C15.18,11.458 15.448,10.908 15.448,10.22C15.448,9.751 15.302,9.361 15.013,9.055C14.708,8.762 14.027,8.491 12.967,8.241C8.036,7.141 4.91,6.138 3.59,5.23C1.762,3.97 0.849,2.218 0.849,-0.022C0.849,-2.044 1.639,-3.744 3.22,-5.122C4.8,-6.499 7.253,-7.186 10.575,-7.186C13.736,-7.186 16.086,-6.668 17.625,-5.626C19.162,-4.587 20.22,-3.048 20.8,-1.012L15.034,0.065C14.788,-0.843 14.319,-1.54 13.631,-2.022C12.942,-2.507 11.959,-2.748 10.683,-2.748C9.073,-2.748 7.92,-2.52 7.224,-2.067C6.759,-1.745 6.527,-1.326 6.527,-0.814C6.527,-0.374 6.73,0 7.137,0.307C7.688,0.717 9.592,1.296 12.848,2.042C16.104,2.791 18.378,3.706 19.669,4.79C20.946,5.89 21.583,7.42 21.583,9.384C21.583,11.523 20.699,13.363 18.929,14.9C17.16,16.439 14.542,17.208 11.075,17.208C7.927,17.208 5.436,16.564 3.601,15.274C1.765,13.985 0.566,12.233 0,10.022" style="fill:rgb(15,80,163);fill-rule:nonzero;"/>
                        </g>
                        <g transform="matrix(1,0,0,1,157.317,353.592)">
                            <path d="M0,31.693L0,-0.527L6.115,-0.527L6.115,11.076C8,8.91 10.234,7.826 12.816,7.826C15.63,7.826 17.958,8.854 19.801,10.912C21.642,12.972 22.563,15.927 22.563,19.782C22.563,23.767 21.624,26.835 19.746,28.99C17.868,31.143 15.586,32.22 12.903,32.22C11.583,32.22 10.281,31.887 8.998,31.219C7.714,30.555 6.607,29.569 5.679,28.264L5.679,31.693L0,31.693ZM6.07,19.516C6.07,21.935 6.448,23.722 7.202,24.881C8.261,26.522 9.668,27.342 11.423,27.342C12.772,27.342 13.922,26.758 14.872,25.593C15.822,24.43 16.297,22.595 16.297,20.089C16.297,17.422 15.819,15.499 14.86,14.32C13.904,13.139 12.677,12.551 11.184,12.551C9.719,12.551 8.5,13.126 7.529,14.275C6.556,15.424 6.07,17.174 6.07,19.516" style="fill:rgb(15,80,163);fill-rule:nonzero;"/>
                        </g>
                        <g transform="matrix(1,0,0,1,198.67,362.473)">
                            <path d="M0,22.812L0,19.318C-0.842,20.562 -1.948,21.545 -3.318,22.262C-4.688,22.981 -6.136,23.339 -7.658,23.339C-9.211,23.339 -10.604,22.995 -11.836,22.307C-13.069,21.617 -13.961,20.65 -14.512,19.406C-15.064,18.16 -15.339,16.437 -15.339,14.242L-15.339,-0.527L-9.225,-0.527L-9.225,10.198C-9.225,13.48 -9.114,15.49 -8.888,16.23C-8.664,16.969 -8.253,17.555 -7.658,17.988C-7.064,18.421 -6.309,18.637 -5.396,18.637C-4.352,18.637 -3.416,18.347 -2.589,17.767C-1.763,17.19 -1.197,16.471 -0.891,15.614C-0.587,14.758 -0.435,12.659 -0.435,9.319L-0.435,-0.527L5.679,-0.527L5.679,22.812L0,22.812Z" style="fill:rgb(15,80,163);fill-rule:nonzero;"/>
                        </g>
                        <g transform="matrix(1,0,0,1,216.088,361.418)">
                            <path d="M0,23.867L-6.114,23.867L-6.114,0.528L-0.435,0.528L-0.435,3.846C0.537,2.277 1.41,1.244 2.187,0.746C2.962,0.248 3.843,0 4.831,0C6.223,0 7.563,0.388 8.855,1.163L6.962,6.549C5.933,5.874 4.975,5.536 4.09,5.536C3.234,5.536 2.509,5.775 1.915,6.251C1.32,6.729 0.852,7.59 0.512,8.834C0.17,10.08 0,12.689 0,16.658L0,23.867Z" style="fill:rgb(15,80,163);fill-rule:nonzero;"/>
                        </g>
                        <g transform="matrix(1,0,0,1,225.797,394.758)">
                            <path d="M0,-32.812L6.505,-32.812L12.033,-16.242L17.429,-32.812L23.76,-32.812L15.601,-10.352L14.144,-6.286C13.606,-4.924 13.096,-3.882 12.61,-3.166C12.123,-2.447 11.565,-1.865 10.934,-1.419C10.303,-0.97 9.527,-0.623 8.605,-0.375C7.685,-0.124 6.644,0 5.483,0C4.309,0 3.155,-0.124 2.024,-0.375L1.48,-5.208C2.437,-5.019 3.3,-4.924 4.069,-4.924C5.49,-4.924 6.542,-5.345 7.225,-6.186C7.905,-7.029 8.428,-8.102 8.79,-9.407L0,-32.812Z" style="fill:rgb(15,80,163);fill-rule:nonzero;"/>
                        </g>
                        <g transform="matrix(1,0,0,1,268.797,353.065)">
                            <path d="M0,32.22L-7.769,0L-1.043,0L3.863,22.133L9.812,0L17.625,0L23.331,22.505L28.324,0L34.939,0L27.038,32.22L20.067,32.22L13.585,8.132L7.125,32.22L0,32.22Z" style="fill:rgb(15,80,163);fill-rule:nonzero;"/>
                        </g>
                        <g transform="matrix(1,0,0,1,318.204,369.376)">
                            <path d="M0,8.48L6.216,9.515C5.415,11.771 4.155,13.489 2.431,14.667C0.707,15.846 -1.45,16.437 -4.04,16.437C-8.139,16.437 -11.174,15.112 -13.141,12.459C-14.694,10.335 -15.472,7.652 -15.472,4.416C-15.472,0.547 -14.452,-2.482 -12.409,-4.673C-10.366,-6.864 -7.783,-7.957 -4.66,-7.957C-1.154,-7.957 1.614,-6.812 3.64,-4.52C5.667,-2.225 6.636,1.287 6.549,6.019L-9.078,6.019C-9.034,7.851 -8.531,9.276 -7.569,10.294C-6.608,11.313 -5.411,11.821 -3.972,11.821C-2.996,11.821 -2.177,11.559 -1.509,11.032C-0.842,10.504 -0.341,9.654 0,8.48M0.355,2.241C0.312,0.453 -0.155,-0.906 -1.043,-1.837C-1.932,-2.768 -3.01,-3.232 -4.284,-3.232C-5.646,-3.232 -6.77,-2.741 -7.659,-1.761C-8.545,-0.778 -8.981,0.554 -8.967,2.241L0.355,2.241Z" style="fill:rgb(15,80,163);fill-rule:nonzero;"/>
                        </g>
                        <g transform="matrix(1,0,0,1,0,-2096.3)">
                            <rect x="328.935" y="2449.36" width="6.237" height="32.22" style="fill:rgb(15,80,163);"/>
                        </g>
                        <g transform="matrix(1,0,0,1,0,-2096.3)">
                            <rect x="340.666" y="2449.36" width="6.239" height="32.22" style="fill:rgb(15,80,163);"/>
                        </g>
                        <g transform="matrix(1,0,0,1,372.951,378.385)">
                            <path d="M0,-9.539L-6.147,-8.441C-6.354,-9.656 -6.825,-10.571 -7.557,-11.187C-8.291,-11.802 -9.242,-12.111 -10.41,-12.111C-11.963,-12.111 -13.203,-11.579 -14.129,-10.518C-15.052,-9.456 -15.516,-7.677 -15.516,-5.186C-15.516,-2.418 -15.047,-0.462 -14.105,0.681C-13.166,1.824 -11.903,2.394 -10.322,2.394C-9.138,2.394 -8.169,2.061 -7.414,1.396C-6.659,0.729 -6.126,-0.419 -5.817,-2.044L0.312,-1.012C-0.325,1.772 -1.546,3.875 -3.352,5.295C-5.156,6.718 -7.576,7.428 -10.611,7.428C-14.057,7.428 -16.806,6.351 -18.856,4.198C-20.906,2.043 -21.931,-0.937 -21.931,-4.749C-21.931,-8.602 -20.903,-11.602 -18.844,-13.747C-16.788,-15.893 -14.004,-16.967 -10.5,-16.967C-7.628,-16.967 -5.344,-16.355 -3.651,-15.132C-1.958,-13.91 -0.739,-12.043 0,-9.539" style="fill:rgb(15,80,163);fill-rule:nonzero;"/>
                        </g>
                        <g transform="matrix(1,0,0,1,375.336,373.946)">
                            <path d="M0,-0.662C0,-2.711 0.512,-4.697 1.532,-6.618C2.555,-8.536 4.002,-10.001 5.872,-11.013C7.746,-12.023 9.835,-12.528 12.144,-12.528C15.71,-12.528 18.632,-11.383 20.913,-9.09C23.191,-6.796 24.329,-3.899 24.329,-0.396C24.329,3.134 23.179,6.06 20.878,8.384C18.577,10.706 15.68,11.866 12.188,11.866C10.027,11.866 7.965,11.384 6.006,10.415C4.044,9.45 2.555,8.032 1.532,6.164C0.512,4.295 0,2.02 0,-0.662M6.396,-0.331C6.396,1.984 6.95,3.756 8.058,4.987C9.17,6.217 10.539,6.833 12.167,6.833C13.794,6.833 15.16,6.217 16.261,4.987C17.365,3.756 17.914,1.968 17.914,-0.376C17.914,-2.662 17.365,-4.42 16.261,-5.651C15.16,-6.881 13.794,-7.497 12.167,-7.497C10.539,-7.497 9.17,-6.881 8.058,-5.651C6.95,-4.42 6.396,-2.646 6.396,-0.331" style="fill:rgb(15,80,163);fill-rule:nonzero;"/>
                        </g>
                        <g transform="matrix(1,0,0,1,403.183,384.757)">
                            <path d="M0,-22.811L5.748,-22.811L5.748,-19.626C7.806,-22.101 10.253,-23.339 13.097,-23.339C14.604,-23.339 15.913,-23.032 17.025,-22.416C18.133,-21.801 19.045,-20.87 19.754,-19.626C20.79,-20.87 21.907,-21.801 23.105,-22.416C24.306,-23.032 25.587,-23.339 26.946,-23.339C28.678,-23.339 30.143,-22.992 31.341,-22.295C32.539,-21.601 33.435,-20.578 34.028,-19.229C34.455,-18.233 34.672,-16.621 34.672,-14.394L34.672,0.528L28.433,0.528L28.433,-12.811C28.433,-15.127 28.218,-16.621 27.791,-17.295C27.214,-18.174 26.325,-18.614 25.125,-18.614C24.252,-18.614 23.431,-18.35 22.662,-17.823C21.894,-17.295 21.337,-16.522 20.998,-15.505C20.656,-14.486 20.488,-12.879 20.488,-10.679L20.488,0.528L14.251,0.528L14.251,-12.262C14.251,-14.534 14.14,-15.999 13.917,-16.657C13.695,-17.318 13.351,-17.809 12.884,-18.132C12.418,-18.454 11.786,-18.614 10.985,-18.614C10.022,-18.614 9.157,-18.357 8.388,-17.845C7.619,-17.332 7.068,-16.592 6.738,-15.625C6.403,-14.658 6.237,-13.055 6.237,-10.812L6.237,0.528L0,0.528L0,-22.811Z" style="fill:rgb(15,80,163);fill-rule:nonzero;"/>
                        </g>
                        <g transform="matrix(1,0,0,1,456.822,369.376)">
                            <path d="M0,8.48L6.213,9.515C5.417,11.771 4.155,13.489 2.43,14.667C0.706,15.846 -1.452,16.437 -4.04,16.437C-8.139,16.437 -11.174,15.112 -13.141,12.459C-14.694,10.335 -15.473,7.652 -15.473,4.416C-15.473,0.547 -14.452,-2.482 -12.409,-4.673C-10.367,-6.864 -7.784,-7.957 -4.663,-7.957C-1.154,-7.957 1.611,-6.812 3.64,-4.52C5.667,-2.225 6.636,1.287 6.548,6.019L-9.081,6.019C-9.035,7.851 -8.532,9.276 -7.569,10.294C-6.609,11.313 -5.411,11.821 -3.975,11.821C-2.999,11.821 -2.175,11.559 -1.51,11.032C-0.843,10.504 -0.339,9.654 0,8.48M0.353,2.241C0.312,0.453 -0.155,-0.906 -1.043,-1.837C-1.932,-2.768 -3.013,-3.232 -4.284,-3.232C-5.646,-3.232 -6.772,-2.741 -7.659,-1.761C-8.545,-0.778 -8.984,0.554 -8.97,2.241L0.353,2.241Z" style="fill:rgb(15,80,163);fill-rule:nonzero;"/>
                        </g>
                        <g transform="matrix(1,0,0,1,499.228,364.913)">
                            <path d="M0,8.527L6.306,10.527C5.341,14.043 3.733,16.655 1.484,18.362C-0.764,20.069 -3.617,20.923 -7.075,20.923C-11.354,20.923 -14.87,19.46 -17.625,16.538C-20.379,13.615 -21.757,9.618 -21.757,4.548C-21.757,-0.814 -20.373,-4.98 -17.605,-7.946C-14.835,-10.912 -11.195,-12.396 -6.68,-12.396C-2.737,-12.396 0.462,-11.232 2.925,-8.902C4.388,-7.525 5.487,-5.545 6.221,-2.967L-0.219,-1.43C-0.6,-3.1 -1.394,-4.418 -2.604,-5.386C-3.811,-6.352 -5.281,-6.835 -7.01,-6.835C-9.399,-6.835 -11.335,-5.978 -12.824,-4.265C-14.311,-2.55 -15.052,0.227 -15.052,4.066C-15.052,8.139 -14.322,11.041 -12.857,12.767C-11.393,14.499 -9.487,15.362 -7.142,15.362C-5.415,15.362 -3.926,14.812 -2.68,13.714C-1.436,12.614 -0.54,10.885 0,8.527" style="fill:rgb(15,80,163);fill-rule:nonzero;"/>
                        </g>
                        <g transform="matrix(1,0,0,1,523.018,369.376)">
                            <path d="M0,8.48L6.154,9.515C5.36,11.771 4.111,13.489 2.405,14.667C0.697,15.846 -1.438,16.437 -4.002,16.437C-8.061,16.437 -11.063,15.112 -13.012,12.459C-14.551,10.335 -15.32,7.652 -15.32,4.416C-15.32,0.547 -14.311,-2.482 -12.289,-4.673C-10.267,-6.864 -7.709,-7.957 -4.617,-7.957C-1.145,-7.957 1.595,-6.812 3.601,-4.52C5.609,-2.225 6.569,1.287 6.481,6.019L-8.991,6.019C-8.947,7.851 -8.448,9.276 -7.495,10.294C-6.544,11.313 -5.357,11.821 -3.936,11.821C-2.968,11.821 -2.156,11.559 -1.498,11.032C-0.838,10.504 -0.339,9.654 0,8.48M0.351,2.241C0.307,0.453 -0.157,-0.906 -1.037,-1.837C-1.914,-2.768 -2.982,-3.232 -4.243,-3.232C-5.59,-3.232 -6.706,-2.741 -7.583,-1.761C-8.462,-0.778 -8.896,0.554 -8.882,2.241L0.351,2.241Z" style="fill:rgb(15,80,163);fill-rule:nonzero;"/>
                        </g>
                        <g transform="matrix(1,0,0,1,554.865,361.418)">
                            <path d="M0,23.867L-6.177,23.867L-6.177,11.956C-6.177,9.436 -6.309,7.804 -6.574,7.065C-6.835,6.325 -7.267,5.75 -7.86,5.34C-8.453,4.93 -9.167,4.725 -10,4.725C-11.071,4.725 -12.031,5.018 -12.883,5.604C-13.732,6.19 -14.314,6.965 -14.627,7.932C-14.944,8.899 -15.099,10.687 -15.099,13.295L-15.099,23.867L-21.275,23.867L-21.275,0.528L-15.542,0.528L-15.542,3.954C-13.503,1.317 -10.941,0 -7.848,0C-6.484,0 -5.24,0.243 -4.114,0.735C-2.982,1.226 -2.128,1.853 -1.551,2.615C-0.972,3.377 -0.57,4.24 -0.342,5.207C-0.116,6.174 0,7.56 0,9.362L0,23.867Z" style="fill:rgb(15,80,163);fill-rule:nonzero;"/>
                        </g>
                        <g transform="matrix(1,0,0,1,571.156,377.569)">
                            <path d="M0,-15.623L0,-10.7L-4.22,-10.7L-4.22,-1.296C-4.22,0.611 -4.18,1.72 -4.1,2.036C-4.019,2.349 -3.836,2.611 -3.55,2.815C-3.264,3.021 -2.918,3.123 -2.507,3.123C-1.935,3.123 -1.106,2.924 -0.023,2.529L0.505,7.319C-0.93,7.937 -2.558,8.244 -4.374,8.244C-5.489,8.244 -6.491,8.057 -7.384,7.682C-8.28,7.311 -8.936,6.826 -9.353,6.233C-9.769,5.64 -10.06,4.838 -10.221,3.826C-10.353,3.109 -10.419,1.657 -10.419,-0.525L-10.419,-10.7L-13.254,-10.7L-13.254,-15.623L-10.419,-15.623L-10.419,-20.262L-4.22,-23.867L-4.22,-15.623L0,-15.623Z" style="fill:rgb(15,80,163);fill-rule:nonzero;"/>
                        </g>
                        <g transform="matrix(1,0,0,1,581.802,361.418)">
                            <path d="M0,23.867L-6.174,23.867L-6.174,0.528L-0.438,0.528L-0.438,3.846C0.542,2.277 1.427,1.244 2.211,0.746C2.994,0.248 3.882,0 4.879,0C6.285,0 7.643,0.388 8.944,1.163L7.033,6.549C5.992,5.874 5.025,5.536 4.134,5.536C3.269,5.536 2.535,5.775 1.935,6.251C1.334,6.729 0.863,7.59 0.517,8.834C0.173,10.08 0,12.689 0,16.658L0,23.867Z" style="fill:rgb(15,80,163);fill-rule:nonzero;"/>
                        </g>
                        <g transform="matrix(1,0,0,1,605.575,369.376)">
                            <path d="M0,8.48L6.153,9.515C5.362,11.771 4.113,13.489 2.405,14.667C0.699,15.846 -1.438,16.437 -4,16.437C-8.061,16.437 -11.064,15.112 -13.01,12.459C-14.549,10.335 -15.318,7.652 -15.318,4.416C-15.318,0.547 -14.309,-2.482 -12.287,-4.673C-10.265,-6.864 -7.71,-7.957 -4.617,-7.957C-1.145,-7.957 1.597,-6.812 3.603,-4.52C5.611,-2.225 6.571,1.287 6.483,6.019L-8.989,6.019C-8.947,7.851 -8.448,9.276 -7.495,10.294C-6.544,11.313 -5.355,11.821 -3.936,11.821C-2.969,11.821 -2.154,11.559 -1.496,11.032C-0.836,10.504 -0.337,9.654 0,8.48M0.353,2.241C0.307,0.453 -0.155,-0.906 -1.034,-1.837C-1.914,-2.768 -2.982,-3.232 -4.243,-3.232C-5.591,-3.232 -6.704,-2.741 -7.583,-1.761C-8.462,-0.778 -8.894,0.554 -8.88,2.241L0.353,2.241Z" style="fill:rgb(15,80,163);fill-rule:nonzero;"/>
                        </g>
                    </g>
                </g>
                <g transform="matrix(-4.16667,0,0,4.16667,-9308.57,-11871.1)">
                    <rect x="133.234" y="2506.46" width="4.616" height="92.326" style="fill:rgb(15,80,163);"/>
                </g>
                <g transform="matrix(-4.16667,0,0,4.16667,-8866.16,-11871.1)">
                    <rect x="184.015" y="2506.46" width="9.233" height="92.326" style="fill:rgb(15,80,163);"/>
                </g>
                <g transform="matrix(-4.16667,0,0,4.16667,-8404.51,-11871.1)">
                    <rect x="239.413" y="2506.46" width="9.233" height="92.326" style="fill:rgb(15,80,163);"/>
                </g>
                <g transform="matrix(-4.16667,0,0,4.16667,-8058.28,-11871.1)">
                    <rect x="283.269" y="2506.46" width="4.616" height="92.326" style="fill:rgb(15,80,163);"/>
                </g>
                <g transform="matrix(-4.16667,0,0,4.16667,-7827.46,-11871.1)">
                    <rect x="310.967" y="2506.46" width="4.617" height="92.326" style="fill:rgb(15,80,163);"/>
                </g>
                <g transform="matrix(-4.16667,0,0,4.16667,-7596.63,-11871.1)">
                    <rect x="338.667" y="2506.46" width="4.616" height="92.326" style="fill:rgb(15,80,163);"/>
                </g>
                <g transform="matrix(-4.16667,0,0,4.16667,-7365.81,-11871.1)">
                    <rect x="366.365" y="2506.46" width="4.617" height="92.326" style="fill:rgb(15,80,163);"/>
                </g>
                <g transform="matrix(-4.16667,0,0,4.16667,-7019.57,-11871.1)">
                    <rect x="405.606" y="2506.46" width="9.233" height="92.326" style="fill:rgb(15,80,163);"/>
                </g>
                <g transform="matrix(-4.16667,0,0,4.16667,-6557.92,-11871.1)">
                    <rect x="461.004" y="2506.46" width="9.233" height="92.326" style="fill:rgb(15,80,163);"/>
                </g>
                <g transform="matrix(-4.16667,0,0,4.16667,-9096.98,-11871.1)">
                    <rect x="156.316" y="2513.39" width="9.233" height="78.477" style="fill:rgb(15,80,163);"/>
                </g>
                <g transform="matrix(-4.16667,0,0,4.16667,-8635.33,-11871.1)">
                    <rect x="211.714" y="2513.39" width="9.233" height="78.477" style="fill:rgb(15,80,163);"/>
                </g>
                <g transform="matrix(-4.16667,0,0,4.16667,-8183.3,-11871.1)">
                    <rect x="267.113" y="2513.39" width="6.923" height="78.477" style="fill:rgb(15,80,163);"/>
                </g>
                <g transform="matrix(-4.16667,0,0,4.16667,-7942.87,-11871.1)">
                    <rect x="297.118" y="2511.08" width="4.617" height="83.094" style="fill:rgb(15,80,163);"/>
                </g>
                <g transform="matrix(-4.16667,0,0,4.16667,-7712.04,-11871.1)">
                    <rect x="324.818" y="2511.08" width="4.616" height="83.094" style="fill:rgb(15,80,163);"/>
                </g>
                <g transform="matrix(-4.16667,0,0,4.16667,-7481.22,-11871.1)">
                    <rect x="352.516" y="2511.08" width="4.617" height="83.094" style="fill:rgb(15,80,163);"/>
                </g>
                <g transform="matrix(-4.16667,0,0,4.16667,-7240.78,-11871.1)">
                    <rect x="380.215" y="2513.39" width="6.925" height="78.477" style="fill:rgb(15,80,163);"/>
                </g>
                <g transform="matrix(-4.16667,0,0,4.16667,-6788.74,-11871.1)">
                    <rect x="433.305" y="2513.39" width="9.233" height="78.477" style="fill:rgb(15,80,163);"/>
                </g>
                <g transform="matrix(-4.16667,0,0,4.16667,-6327.09,-11871.1)">
                    <rect x="488.703" y="2513.39" width="9.233" height="78.477" style="fill:rgb(15,80,163);"/>
                </g>
                <g transform="matrix(-4.16667,0,0,4.16667,-6115.5,-11871.1)">
                    <rect x="516.403" y="2506.46" width="4.616" height="92.326" style="fill:rgb(15,80,163);"/>
                </g>
            </g>
        </g>
    </g>
</svg>
